<svg xmlns="http://www.w3.org/2000/svg" viewBox="0 0 47 47"><defs><style>.cls-1{fill:#00afc4;}.cls-2{fill:#cbdf83;}</style></defs><title>Asset 1</title><g id="Layer_2" data-name="Layer 2"><g id="Layer_1-2" data-name="Layer 1"><circle id="Ellipse_36" data-name="Ellipse 36" class="cls-1" cx="23.5" cy="23.5" r="23.5"/><path id="icon" class="cls-2" d="M21.25,30.25a2,2,0,0,1-1.57-.68l-4.5-4.5A2.17,2.17,0,0,1,15.1,22a.6.6,0,0,1,.08-.08,2.17,2.17,0,0,1,3.07-.07l.08.07,2.92,2.93,7.42-7.43a2.18,2.18,0,0,1,3.08-.07.46.46,0,0,1,.07.07,2.18,2.18,0,0,1,.08,3.08.27.27,0,0,1-.08.07l-9,9A2,2,0,0,1,21.25,30.25Z"/></g></g></svg>